{"title":"Maneater 2007 DVDRip Dual Audio Hindi English GOPI SAHI PDR","uid":11230657,"size":808520742,"categoryP":"video","categoryS":"movies","magnet":"?xt=urn:btih:23b10be6ff69786677e8dc80262ef99032c50adc&amp;dn=Maneater+2007+DVDRip+Dual+Audio+Hindi+English+GOPI+SAHI+PDR&amp;tr=udp%3A%2F%2Ftracker.openbittorrent.com%3A80&amp;tr=udp%3A%2F%2Fopen.demonii.com%3A1337&amp;tr=udp%3A%2F%2Ftracker.coppersurfer.tk%3A6969&amp;tr=udp%3A%2F%2Fexodus.desync.com%3A6969","seeders":0,"leechers":2,"uploader":"jatt13","files":1,"time":1413521849,"description":"General\nUnique ID                      : 180996074419880095559046261520709733098 (0x882A9371BBA9CCF4AC8BEDBB6D684AEA)\nComplete name                  : G:dub2007Maneater 2007 DVDRip Dual Audio Hindi English GOPI SAHI PDR.mkv\nFormat                         : Matroska\nFormat version                 : Version 4 / Version 2\nFile size                      : 771 MiB\nDuration                       : 1h 28mn\nOverall bit rate mode          : Variable\nOverall bit rate               : 1 224 Kbps\nEncoded date                   : UTC 2014-10-17 14:45:04\nWriting application            : mkvmerge v6.5.0 ('Isn't she lovely') built on Oct 20 2013 12:50:05\nWriting library                : libebml v1.3.0 + libmatroska v1.4.1\n\nVideo\nID                             : 1\nFormat                         : MPEG-4 Visual\nFormat profile                 : Advanced Simple@L5\nFormat settings, BVOP          : Yes\nFormat settings, QPel          : No\nFormat settings, GMC           : No warppoints\nFormat settings, Matrix        : Default (H.263)\nCodec ID                       : V_MS/VFW/FOURCC / XVID\nCodec ID/Hint                  : XviD\nDuration                       : 1h 28mn\nBit rate                       : 944 Kbps\nWidth                          : 560 pixels\nHeight                         : 304 pixels\nDisplay aspect ratio           : 1.85:1\nFrame rate mode                : Constant\nFrame rate                     : 23.976 fps\nColor space                    : YUV\nChroma subsampling             : 4:2:0\nBit depth                      : 8 bits\nScan type                      : Progressive\nCompression mode               : Lossy\nBits/(Pixel*Frame)             : 0.231\nStream size                    : 594 MiB (77%)\nTitle                          : Maneater 2007 DVDRip Dual Audio Hindi English GOPI SAHI\nWriting library                : XviD 1.1.2 (UTC 2006-11-01)\nLanguage                       : English\nDefault                        : Yes\nForced                         : No\n\nAudio #1\nID                             : 2\nFormat                         : MPEG Audio\nFormat version                 : Version 1\nFormat profile                 : Layer 3\nMode                           : Joint stereo\nMode extension                 : MS Stereo\nCodec ID                       : A_MPEG/L3\nCodec ID/Hint                  : MP3\nDuration                       : 1h 31mn\nBit rate mode                  : Variable\nBit rate                       : 128 Kbps\nChannel(s)                     : 2 channels\nSampling rate                  : 48.0 KHz\nCompression mode               : Lossy\nStream size                    : 83.4 MiB (11%)\nTitle                          : GOPI SAHI\nWriting library                : LAME3.90.\nEncoding settings              : -m j -V 4 -q 2 -lowpass 17.6 --abr 128\nLanguage                       : English\nDefault                        : No\nForced                         : No\n\nAudio #2\nID                             : 3\nFormat                         : MPEG Audio\nFormat version                 : Version 1\nFormat profile                 : Layer 3\nCodec ID                       : A_MPEG/L3\nCodec ID/Hint                  : MP3\nDuration                       : 1h 28mn\nBit rate mode                  : Constant\nBit rate                       : 128 Kbps\nChannel(s)                     : 2 channels\nSampling rate                  : 44.1 KHz\nCompression mode               : Lossy\nStream size                    : 80.6 MiB (10%)\nTitle                          : GOPI SAHI\nLanguage                       : Hindi\nDefault                        : Yes\nForced                         : No\n[IMG]http://imgchicken.com/images/97058510591518709693.jpg[/IMG]\n[IMG]http://imgchicken.com/images/23155008695234307595.jpg[/IMG]\n[IMG]http://imgchicken.com/images/71775274605288664781.jpg[/IMG]\n[IMG]http://imgchicken.com/images/82007366345529742565.jpg[/IMG]","torrent":{"xt":"urn:btih:23b10be6ff69786677e8dc80262ef99032c50adc","amp;dn":"Maneater+2007+DVDRip+Dual+Audio+Hindi+English+GOPI+SAHI+PDR","amp;tr":["udp%3A%2F%2Ftracker.openbittorrent.com%3A80","udp%3A%2F%2Fopen.demonii.com%3A1337","udp%3A%2F%2Ftracker.coppersurfer.tk%3A6969","udp%3A%2F%2Fexodus.desync.com%3A6969"],"infoHash":"23b10be6ff69786677e8dc80262ef99032c50adc","infoHashBuffer":{"type":"Buffer","data":[35,177,11,230,255,105,120,102,119,232,220,128,38,46,249,144,50,197,10,220]},"announce":[],"urlList":[]}}